[Header]
FileType HTR
DataType HTRS
FileVersion 1
NumSegments 22
NumFrames 5
DataFrameRate 24
EulerRotationOrder ZYX
CalibrationUnits mm
RotationUnits Degrees
GlobalAxisofGravity Y
BoneLengthAxis Y
ScaleFactor 1.0
[SegmentNames&Hierarchy]
reference	GLOBAL
Hips	reference
Spine	Hips
Spine1	Spine
Neck	Spine1
Head	Neck
LeftShoulder	Spine1
LeftArm	LeftShoulder
LeftForeArm	LeftArm
LeftHand	LeftForeArm
RightShoulder	Spine1
RightArm	RightShoulder
RightForeArm	RightArm
RightHand	RightForeArm
LeftUpLeg	Hips
LeftLeg	LeftUpLeg
LeftFoot	LeftLeg
LeftToeBase	LeftFoot
RightUpLeg	Hips
RightLeg	RightUpLeg
RightFoot	RightLeg
RightToeBase	RightFoot
[BasePosition]
reference	0	0	0	0	0	0	1
Hips	0	0	0	0	0	0	1
Spine	0	0	0	0	-0	90	1
Spine1	0	0	0	0	0	0	1
Neck	0	0	0	-7.352327771	-7.352327771	90	1
Head	0	0	0	0	-0	90	1
LeftShoulder	0	0	0	0	0	0	1
LeftArm	0	0	0	0	0	0	1
LeftForeArm	0	0	0	0	0	0	1
LeftHand	0	0	0	0	0	0	1
RightShoulder	0	0	0	0	-0	180	1
RightArm	0	0	0	0	-0	180	1
RightForeArm	0	0	0	0	-0	180	1
RightHand	0	0	0	0	-0	180	1
LeftUpLeg	0	0	0	0	-0	-90	1
LeftLeg	0	0	0	0	-0	-90	1
LeftFoot	0	0	0	66.57146043	-66.57146043	-90	1
LeftToeBase	0	0	0	0	-90	0	1
RightUpLeg	0	0	0	0	-0	-90	1
RightLeg	0	0	0	0	-0	-90	1
RightFoot	0	0	0	66.57146043	-66.57146043	-90	1
RightToeBase	0	0	0	0	-90	0	1
[reference]
48	0	0	0	0	-0	0	1.0
49	0	0	0	0	-0	0	1.0
50	0	0	0	0	-0	0	1.0
51	0	0	0	0	-0	0	1.0
52	0	0	0	0	-0	0	1.0
[Hips]
48	2.000627756	8.387748718	-1.016656876	1.541447639	-178.2700195	-0.9281434417	1.0
49	1.838539958	8.396752357	-1.323660016	1.237701416	-181.9954071	-1.247558594	1.0
50	1.676727772	8.405185699	-1.646197081	0.3466149569	-182.4179382	-2.710736752	1.0
51	1.527381182	8.413509369	-1.907268524	-0.6697235107	-184.1925354	-4.340466499	1.0
52	1.416008234	8.422183037	-2.162886858	-1.651331902	-186.42099	-4.848065376	1.0
[Spine]
48	0	0.7457100153	0	-5.636648178	9.047229767	-90.70223236	1.0
49	0	0.7457100153	0	-5.71802187	9.57862854	-91.08953094	1.0
50	0	0.7457100153	0	-5.737093925	7.600656509	-92.59955597	1.0
51	0	0.7457100153	0	-5.029177189	6.162629128	-93.97003174	1.0
52	0	0.7457100153	0	-4.416442871	5.344711304	-94.48498535	1.0
[Spine1]
48	0	2.140589952	0	9.644945145	3.101056576	-0.9890018106	1.0
49	0	2.140589952	0	8.651117325	3.288974762	-1.025326967	1.0
50	0	2.140589952	0	8.852153778	2.62376833	-1.128329396	1.0
51	0	2.140589952	0	9.023152351	2.248528004	-1.454089284	1.0
52	0	2.140589952	0	10.17166901	1.970774531	-1.523686767	1.0
[Neck]
48	0	2.32246995	0	-10.34406662	6.690764427	-91.33309174	1.0
49	0	2.32246995	0	-9.219455719	7.44045639	-90.63505554	1.0
50	0	2.32246995	0	-7.768810272	8.073433876	-89.87564087	1.0
51	0	2.32246995	0	-6.803263187	8.530388832	-89.39083862	1.0
52	0	2.32246995	0	-7.377894402	9.418226242	-88.91390991	1.0
[Head]
48	0	1.409579992	0.1818799973	-4.950936794	-0.4502239227	-92.31921387	1.0
49	0	1.409579992	0.1818799973	-2.82746315	0.3769964874	-92.63829041	1.0
50	0	1.409579992	0.1818799973	-3.609350681	0.9971840382	-92.55543518	1.0
51	0	1.409579992	0.1818799973	-6.25658226	1.366735458	-92.11380005	1.0
52	0	1.409579992	0.1818799973	-6.326959133	2.327621937	-92.80044556	1.0
[LeftShoulder]
48	0.3668199778	1.946700096	-0.02662999928	-13.82167149	-10.88694	-2.346086979	1.0
49	0.3668199778	1.946700096	-0.02662999928	-13.70027733	-11.09434223	-2.204777718	1.0
50	0.3668199778	1.946700096	-0.02662999928	-13.81772041	-11.49907589	-2.09702754	1.0
51	0.3668199778	1.946700096	-0.02662999928	-15.52976513	-11.70636177	-2.589167595	1.0
52	0.3668199778	1.946700096	-0.02662999928	-16.86291122	-12.25212765	-3.443267107	1.0
[LeftArm]
48	1.140689969	0	0	26.46794128	24.45982933	-72.92350006	1.0
49	1.140689969	0	0	27.50551605	23.90239716	-73.42481995	1.0
50	1.140689969	0	0	30.59646416	22.6593647	-73.91653442	1.0
51	1.140689969	0	0	35.29068756	21.07836342	-73.54795074	1.0
52	1.140689969	0	0	39.20398712	17.88342667	-72.55527496	1.0
[LeftForeArm]
48	2.749800205	0	0	-9.712274551	-3.721158743	-4.957108498	1.0
49	2.749800205	0	0	-9.962835312	-5.031070232	-4.657347202	1.0
50	2.749800205	0	0	-11.91053581	-6.495049477	-3.575977087	1.0
51	2.749800205	0	0	-14.5962019	-7.185261726	-1.94816494	1.0
52	2.749800205	0	0	-14.88385582	-7.941411495	-1.081342101	1.0
[LeftHand]
48	2.295179844	0	0	-9.91774559	2.337442875	-2.174182415	1.0
49	2.295179844	0	0	-10.18751621	1.474993706	-1.552375317	1.0
50	2.295179844	0	0	-12.1136322	0.1548211277	-0.0912681967	1.0
51	2.295179844	0	0	-14.72036362	-0.9501549602	0.2300173193	1.0
52	2.295179844	0	0	-14.96528339	-0.7142781615	1.013023973	1.0
[RightShoulder]
48	-0.3601199985	1.946700096	-0.02662999928	-8.155319214	5.163143158	176.9330292	1.0
49	-0.3601199985	1.946700096	-0.02662999928	-7.788389206	5.023615837	177.0289764	1.0
50	-0.3601199985	1.946700096	-0.02662999928	-7.558912277	4.496267319	176.7279663	1.0
51	-0.3601199985	1.946700096	-0.02662999928	-7.758575439	4.250549316	176.5877075	1.0
52	-0.3601199985	1.946700096	-0.02662999928	-7.839380264	4.280367374	176.3304291	1.0
[RightArm]
48	-1.140689969	0	0	66.81585693	2.487141371	-93.65099335	1.0
49	-1.140689969	0	0	64.46720123	1.81763804	-94.98989868	1.0
50	-1.140689969	0	0	63.16717148	1.763600349	-96.54978943	1.0
51	-1.140689969	0	0	61.36568832	1.170262575	-98.19886017	1.0
52	-1.140689969	0	0	57.23546219	0.6398388147	-99.41947174	1.0
[RightForeArm]
48	-2.749800205	0	0	-2.911302805	20.5725193	173.8615723	1.0
49	-2.749800205	0	0	-2.455236435	17.73371887	176.5213776	1.0
50	-2.749800205	0	0	0.6702924967	15.78821754	179.0770721	1.0
51	-2.749800205	0	0	2.202021837	14.63396263	179.6787109	1.0
52	-2.749800205	0	0	2.774583817	13.4587822	180.0203552	1.0
[RightHand]
48	-2.295179844	0	0	-2.587406874	12.92024326	173.0287781	1.0
49	-2.295179844	0	0	-2.073075533	11.87039757	178.4555817	1.0
50	-2.295179844	0	0	0.7598043084	10.77688313	179.5963745	1.0
51	-2.295179844	0	0	1.834228277	9.742092133	175.1778717	1.0
52	-2.295179844	0	0	2.047926426	8.793075562	170.598175	1.0
[LeftUpLeg]
48	0.9094099998	0	0	-14.09962368	-3.438965797	93.11701965	1.0
49	0.9094099998	0	0	-11.81727982	1.684570313	91.75720215	1.0
50	0.9094099998	0	0	-10.08355713	3.416260481	89.66230011	1.0
51	0.9094099998	0	0	-8.585931778	2.817361593	87.89602661	1.0
52	0.9094099998	0	0	-6.118762493	3.618172169	86.68267059	1.0
[LeftLeg]
48	0	-4.498080254	0	18.32831192	-0.2461476028	88.41842651	1.0
49	0	-4.498080254	0	20.0822258	-2.519163847	86.91900635	1.0
50	0	-4.498080254	0	23.33273125	-5.632303715	84.57227325	1.0
51	0	-4.498080254	0	26.36116219	-6.987684727	81.73208618	1.0
52	0	-4.498080254	0	27.14032936	-5.389782429	81.83680725	1.0
[LeftFoot]
48	0	-3.729400158	0	-72.59409332	106.7155685	-27.32145119	1.0
49	0	-3.729400158	0	-73.20825958	108.6756973	-25.00213623	1.0
50	0	-3.729400158	0	-72.543396	109.0485992	-21.44165421	1.0
51	0	-3.729400158	0	-68.36958313	110.8123474	-13.44414425	1.0
52	0	-3.729400158	0	-72.2840271	110.8971939	-15.11335087	1.0
[LeftToeBase]
48	0	-0.5911099911	1.364109993	0	0	0	1.0
49	0	-0.5911099911	1.364109993	0	0	0	1.0
50	0	-0.5911099911	1.364109993	0	0	0	1.0
51	0	-0.5911099911	1.364109993	0	0	0	1.0
52	0	-0.5911099911	1.364109993	0	0	0	1.0
[RightUpLeg]
48	-0.9094099998	0	0	10.82273102	-12.61297607	90.57044983	1.0
49	-0.9094099998	0	0	6.973938942	-13.79825783	89.7603302	1.0
50	-0.9094099998	0	0	3.051858187	-16.26623344	88.47336578	1.0
51	-0.9094099998	0	0	-2.591544628	-15.53959656	88.22655487	1.0
52	-0.9094099998	0	0	-8.141288757	-12.81216812	89.36991119	1.0
[RightLeg]
48	0	-4.498080254	0	25.95583153	6.869803429	85.13278198	1.0
49	0	-4.498080254	0	35.4119873	9.215229988	82.35351563	1.0
50	0	-4.498080254	0	44.68650055	8.494501114	78.10956573	1.0
51	0	-4.498080254	0	55.51078415	10.19216824	77.40562439	1.0
52	0	-4.498080254	0	63.11226654	11.01321983	76.12099457	1.0
[RightFoot]
48	0	-3.729400158	0	51.21169281	59.78174591	91.95141602	1.0
49	0	-3.729400158	0	59.20005417	59.6266098	92.16854858	1.0
50	0	-3.729400158	0	64.56626892	61.40221405	89.26906586	1.0
51	0	-3.729400158	0	54.34644699	64.16378784	76.50234985	1.0
52	0	-3.729400158	0	55.9071846	64.59661865	81.00297546	1.0
[RightToeBase]
48	0	-0.5911099911	1.364109993	0	0	0	1.0
49	0	-0.5911099911	1.364109993	0	0	0	1.0
50	0	-0.5911099911	1.364109993	0	0	0	1.0
51	0	-0.5911099911	1.364109993	0	0	0	1.0
52	0	-0.5911099911	1.364109993	0	0	0	1.0
[EndOfFile]
